<?xml version="1.0" encoding="utf-8"?>
<!-- Generator: Adobe Illustrator 18.1.0, SVG Export Plug-In . SVG Version: 6.00 Build 0)  -->
<!DOCTYPE svg PUBLIC "-//W3C//DTD SVG 1.1//EN" "http://www.w3.org/Graphics/SVG/1.1/DTD/svg11.dtd">
<svg version="1.1" id="Layer_1" xmlns="http://www.w3.org/2000/svg" xmlns:xlink="http://www.w3.org/1999/xlink" x="0px" y="0px"
	 viewBox="0 0 518.9 484.2" enable-background="new 0 0 518.9 484.2" xml:space="preserve">
<g>
	<g>
		<g>
			<path fill="#FCCEC4" d="M194.6,129.5c0-22,5.6-44.3,17.4-64.7c11.8-20.5,28.4-36.5,47.5-47.5c-38.8-22.4-88.1-24-129.7,0
				c0,0,0,0,0,0c0,0,0,0,0,0C88.2,41.4,64.9,85,64.9,129.7c0,22,5.5,44.4,17.4,64.9c11.8,20.5,28.4,36.5,47.5,47.5
				c41.6-24,64.8-67.6,64.8-112.3"/>
		</g>
		<g>
			<path fill="#FCCEC4" d="M324.5,129.6c19-11,41.1-17.3,64.7-17.3c23.6,0,45.8,6.3,64.8,17.4c0-44.8-23.3-88.3-64.8-112.3
				c0,0,0,0,0,0c0,0,0,0,0,0c-41.6-24-90.9-22.3-129.7,0c-19.1,11-35.7,27-47.5,47.5c-11.8,20.5-17.4,42.8-17.4,64.9
				c41.6,24,90.9,22.3,129.7,0"/>
		</g>
		<g>
			<path fill="#FCCEC4" d="M129.6,241.8c-19-11-35.5-27-47.3-47.4c-11.8-20.5-17.4-42.8-17.4-64.9C26.1,152,0,193.8,0,241.9
				c0,0,0,0,0,0c0,0,0,0,0,0c0,48,26.1,89.9,64.9,112.3c19.1,11,41.2,17.4,64.8,17.4c23.6,0,45.8-6.4,64.9-17.4
				c0-48-26.1-89.9-64.9-112.3"/>
		</g>
		<g>
			<path fill="#FCCEC4" d="M324.3,354.6c0,22-5.6,44.3-17.4,64.7c-11.8,20.5-28.4,36.5-47.5,47.5c38.8,22.4,88.1,24,129.7,0
				c0,0,0,0,0,0c0,0,0,0,0,0c41.6-24,64.8-67.6,64.8-112.3c0-22-5.5-44.4-17.4-64.9c-11.8-20.5-28.4-36.5-47.5-47.5
				c-41.6,24-64.8,67.6-64.8,112.3"/>
		</g>
		<g>
			<path fill="#FCCEC4" d="M194.4,354.5c-19,11-41.1,17.3-64.7,17.3c-23.6,0-45.8-6.3-64.8-17.4c0,44.8,23.3,88.3,64.8,112.3
				c0,0,0,0,0,0c0,0,0,0,0,0c41.6,24,90.9,22.3,129.7,0c19.1-11,35.7-27,47.5-47.5c11.8-20.5,17.4-42.8,17.4-64.9
				c-41.6-24-90.9-22.3-129.7,0"/>
		</g>
		<g>
			<path fill="#FCCEC4" d="M389.4,242.4c19,11,35.5,27,47.3,47.4c11.8,20.5,17.4,42.8,17.4,64.9c38.8-22.4,64.9-64.3,64.9-112.3
				c0,0,0,0,0,0c0,0,0,0,0,0c0-48-26.1-89.9-64.9-112.3c-19.1-11-41.2-17.4-64.8-17.4c-23.6,0-45.8,6.4-64.9,17.4
				c0,48,26.1,89.9,64.9,112.3"/>
		</g>
	</g>
	<g opacity="0.8">
		<g>
			<linearGradient id="SVGID_1_" gradientUnits="userSpaceOnUse" x1="421.6231" y1="354.6256" x2="421.6231" y2="112.5578">
				<stop  offset="0" style="stop-color:#FBCEC4;stop-opacity:0"/>
				<stop  offset="1" style="stop-color:#411A12;stop-opacity:0.2"/>
			</linearGradient>
			<path fill="url(#SVGID_1_)" d="M389.4,242.4c19,11,35.5,27,47.3,47.4c11.8,20.5,17.4,42.8,17.4,64.9
				c38.8-22.4,64.9-64.3,64.9-112.3c0,0,0,0,0,0c0,0,0,0,0,0c0-48-26.1-89.9-64.9-112.3c-19.1-11-41.2-17.4-64.8-17.4
				c-23.6,0-45.8,6.4-64.9,17.4c0,48,26.1,89.9,64.9,112.3"/>
		</g>
		<g>
			
				<linearGradient id="SVGID_2_" gradientUnits="userSpaceOnUse" x1="1097.8281" y1="186.4205" x2="1097.8281" y2="-55.6474" gradientTransform="matrix(-0.5 -0.866 0.866 -0.5 663.1585 1089.4296)">
				<stop  offset="0" style="stop-color:#FBCEC4;stop-opacity:0"/>
				<stop  offset="1" style="stop-color:#411A12;stop-opacity:0.2"/>
			</linearGradient>
			<path fill="url(#SVGID_2_)" d="M194.6,129.5c0-22,5.6-44.3,17.4-64.7c11.8-20.5,28.4-36.5,47.5-47.5c-38.8-22.4-88.1-24-129.7,0
				c0,0,0,0,0,0c0,0,0,0,0,0C88.2,41.4,64.9,85,64.9,129.7c0,22,5.5,44.4,17.4,64.9c11.8,20.5,28.4,36.5,47.5,47.5
				c41.6-24,64.8-67.6,64.8-112.3"/>
		</g>
		<g>
			
				<linearGradient id="SVGID_3_" gradientUnits="userSpaceOnUse" x1="494.5265" y1="340.1258" x2="494.5265" y2="98.058" gradientTransform="matrix(-0.5 0.866 -0.866 -0.5 622.8944 68.135)">
				<stop  offset="0" style="stop-color:#FBCEC4;stop-opacity:0"/>
				<stop  offset="1" style="stop-color:#411A12;stop-opacity:0.2"/>
			</linearGradient>
			<path fill="url(#SVGID_3_)" d="M194.4,354.5c-19,11-41.1,17.3-64.7,17.3c-23.6,0-45.8-6.3-64.8-17.4c0,44.8,23.3,88.3,64.8,112.3
				c0,0,0,0,0,0c0,0,0,0,0,0c41.6,24,90.9,22.3,129.7,0c19.1-11,35.7-27,47.5-47.5c11.8-20.5,17.4-42.8,17.4-64.9
				c-41.6-24-90.9-22.3-129.7,0"/>
		</g>
		<g>
			
				<linearGradient id="SVGID_4_" gradientUnits="userSpaceOnUse" x1="1082.9426" y1="443.3929" x2="1082.9426" y2="201.3251" gradientTransform="matrix(0.5 -0.866 0.866 0.5 -487.6208 873.9708)">
				<stop  offset="0" style="stop-color:#FBCEC4;stop-opacity:0"/>
				<stop  offset="1" style="stop-color:#411A12;stop-opacity:0.2"/>
			</linearGradient>
			<path fill="url(#SVGID_4_)" d="M324.5,129.6c19-11,41.1-17.3,64.7-17.3c23.6,0,45.8,6.3,64.8,17.4c0-44.8-23.3-88.3-64.8-112.3
				c0,0,0,0,0,0c0,0,0,0,0,0c-41.6-24-90.9-22.3-129.7,0c-19.1,11-35.7,27-47.5,47.5c-11.8,20.5-17.4,42.8-17.4,64.9
				c41.6,24,90.9,22.3,129.7,0"/>
		</g>
		<g>
			
				<linearGradient id="SVGID_5_" gradientUnits="userSpaceOnUse" x1="1333.015" y1="955.1232" x2="1333.015" y2="713.0554" gradientTransform="matrix(-1 0 0 -1 1430.3055 1084.6537)">
				<stop  offset="0" style="stop-color:#FBCEC4;stop-opacity:0"/>
				<stop  offset="1" style="stop-color:#411A12;stop-opacity:0.2"/>
			</linearGradient>
			<path fill="url(#SVGID_5_)" d="M129.6,241.8c-19-11-35.5-27-47.3-47.4c-11.8-20.5-17.4-42.8-17.4-64.9C26.1,152,0,193.8,0,241.9
				c0,0,0,0,0,0c0,0,0,0,0,0c0,48,26.1,89.9,64.9,112.3c19.1,11,41.2,17.4,64.8,17.4c23.6,0,45.8-6.4,64.9-17.4
				c0-48-26.1-89.9-64.9-112.3"/>
		</g>
		<g>
			
				<linearGradient id="SVGID_6_" gradientUnits="userSpaceOnUse" x1="765.0585" y1="916.4324" x2="765.0585" y2="674.3646" gradientTransform="matrix(0.5 0.866 -0.866 0.5 654.3488 -682.0926)">
				<stop  offset="0" style="stop-color:#FBCEC4;stop-opacity:0"/>
				<stop  offset="1" style="stop-color:#411A12;stop-opacity:0.2"/>
			</linearGradient>
			<path fill="url(#SVGID_6_)" d="M324.3,354.6c0,22-5.6,44.3-17.4,64.7c-11.8,20.5-28.4,36.5-47.5,47.5c38.8,22.4,88.1,24,129.7,0
				c0,0,0,0,0,0c0,0,0,0,0,0c41.6-24,64.8-67.6,64.8-112.3c0-22-5.5-44.4-17.4-64.9c-11.8-20.5-28.4-36.5-47.5-47.5
				c-41.6,24-64.8,67.6-64.8,112.3"/>
		</g>
	</g>
</g>
<rect x="-219.9" y="600.4" fill="none" width="958.7" height="209"/>
<g display="none">
</g>
</svg>
